<?xml version="1.0" encoding="UTF-8" standalone="no"?>
<!-- Created with Inkscape (http://www.inkscape.org/) -->

<svg
   xmlns:dc="http://purl.org/dc/elements/1.1/"
   xmlns:cc="http://creativecommons.org/ns#"
   xmlns:rdf="http://www.w3.org/1999/02/22-rdf-syntax-ns#"
   xmlns:svg="http://www.w3.org/2000/svg"
   xmlns="http://www.w3.org/2000/svg"
   xmlns:sodipodi="http://sodipodi.sourceforge.net/DTD/sodipodi-0.dtd"
   xmlns:inkscape="http://www.inkscape.org/namespaces/inkscape"
   width="40.099998mm"
   height="40.02mm"
   viewBox="0 0 40.099998 40.02"
   version="1.1"
   id="svg8"
   inkscape:version="0.92.4 (5da689c313, 2019-01-14)"
   sodipodi:docname="brick3.svg">
  <defs
     id="defs2" />
  <sodipodi:namedview
     id="base"
     pagecolor="#ffffff"
     bordercolor="#666666"
     borderopacity="1.0"
     inkscape:pageopacity="0.0"
     inkscape:pageshadow="2"
     inkscape:zoom="1.979899"
     inkscape:cx="11.560887"
     inkscape:cy="160.1804"
     inkscape:document-units="mm"
     inkscape:current-layer="layer1"
     showgrid="false"
     inkscape:window-width="1920"
     inkscape:window-height="1001"
     inkscape:window-x="-9"
     inkscape:window-y="-9"
     inkscape:window-maximized="1" />
  <metadata
     id="metadata5">
    <rdf:RDF>
      <cc:Work
         rdf:about="">
        <dc:format>image/svg+xml</dc:format>
        <dc:type
           rdf:resource="http://purl.org/dc/dcmitype/StillImage" />
        <dc:title></dc:title>
      </cc:Work>
    </rdf:RDF>
  </metadata>
  <g
     inkscape:label="Layer 1"
     inkscape:groupmode="layer"
     id="layer1"
     transform="translate(0,-256.98)">
    <g
       id="g1420"
       transform="matrix(1.0499179,0,0,1.06011,-218.00296,103.76692)">
      <rect
         ry="0.50456595"
         y="145.12061"
         x="208.28519"
         height="37.144745"
         width="37.144745"
         id="rect10-8-9-0-3-2-4"
         style="fill:#e59127;fill-opacity:1;stroke:#552200;stroke-width:0.70699799;stroke-opacity:1" />
      <path
         transform="matrix(-0.21555318,1.5167323,-1.5990887,-0.18358037,537.96913,-149.99428)"
         d="m 225.65178,164.70833 c 0.2519,0.50225 -0.55275,0.58735 -0.83478,0.41867 -0.76428,-0.45711 -0.54608,-1.55799 -0.003,-2.08824 0.97223,-0.94848 2.55431,-0.5722 3.34168,0.41356 1.15551,1.44665 0.60386,3.56587 -0.82966,4.59513 -1.91067,1.37186 -4.58306,0.63815 -5.84859,-1.24578 -1.59254,-2.37073 -0.67386,-5.60298 1.6619,-7.10203 2.8289,-1.81556 6.62446,-0.71041 8.35548,2.07801 2.03995,3.28604 0.74748,7.64691 -2.49412,9.60893 -3.74255,2.26524 -8.67001,0.7849 -10.86239,-2.91023 -2.49111,-4.19864 -0.82256,-9.69356 3.32635,-12.11584 4.65445,-2.71742 10.71745,-0.86041 13.36929,3.74246 2.621,4.54933 1.32018,10.44843 -2.75701,13.67679"
         sodipodi:t0="0"
         sodipodi:argument="-17.743631"
         sodipodi:radius="11.116612"
         sodipodi:revolution="2.9758999"
         sodipodi:expansion="1"
         sodipodi:cy="164.70833"
         sodipodi:cx="225.65178"
         id="path1416"
         style="fill:none;fill-rule:evenodd;stroke:#552200;stroke-width:0.26458332"
         sodipodi:type="spiral" />
    </g>
  </g>
</svg>
