<?xml version="1.0" encoding="UTF-8" standalone="no"?>
<!-- Created with Inkscape (http://www.inkscape.org/) -->

<svg
   xmlns:dc="http://purl.org/dc/elements/1.1/"
   xmlns:cc="http://creativecommons.org/ns#"
   xmlns:rdf="http://www.w3.org/1999/02/22-rdf-syntax-ns#"
   xmlns:svg="http://www.w3.org/2000/svg"
   xmlns="http://www.w3.org/2000/svg"
   xmlns:sodipodi="http://sodipodi.sourceforge.net/DTD/sodipodi-0.dtd"
   xmlns:inkscape="http://www.inkscape.org/namespaces/inkscape"
   width="210mm"
   height="297mm"
   viewBox="0 0 210 297"
   version="1.1"
   id="svg4721"
   inkscape:version="0.92.4 (5da689c313, 2019-01-14)"
   sodipodi:docname="Postava.svg">
  <defs
     id="defs4715" />
  <sodipodi:namedview
     id="base"
     pagecolor="#ffffff"
     bordercolor="#666666"
     borderopacity="1.0"
     inkscape:pageopacity="0.0"
     inkscape:pageshadow="2"
     inkscape:zoom="1"
     inkscape:cx="256.76408"
     inkscape:cy="735.2516"
     inkscape:document-units="mm"
     inkscape:current-layer="layer1"
     showgrid="false"
     inkscape:window-width="1920"
     inkscape:window-height="1001"
     inkscape:window-x="-9"
     inkscape:window-y="-9"
     inkscape:window-maximized="1" />
  <metadata
     id="metadata4718">
    <rdf:RDF>
      <cc:Work
         rdf:about="">
        <dc:format>image/svg+xml</dc:format>
        <dc:type
           rdf:resource="http://purl.org/dc/dcmitype/StillImage" />
        <dc:title />
      </cc:Work>
    </rdf:RDF>
  </metadata>
  <g
     inkscape:label="Layer 1"
     inkscape:groupmode="layer"
     id="layer1">
    <g
       id="g23"
       transform="matrix(0.86653745,0,0,0.89348815,-12.915469,41.777993)">
      <path
         inkscape:connector-curvature="0"
         id="path4723"
         d="m 105.86771,78.411447 a 25.091935,25.091935 0 0 0 -25.092171,25.092183 25.091935,25.091935 0 0 0 19.398371,24.41048 v 13.07562 h 12.0192 V 127.76721 A 25.091935,25.091935 0 0 0 130.9599,103.50363 25.091935,25.091935 0 0 0 105.86771,78.411447 Z"
         style="fill:#ffccaa;fill-opacity:1;stroke:#ffccaa;stroke-width:0.45036802;stroke-opacity:1" />
      <rect
         ry="10.154422"
         y="201.49681"
         x="94.425858"
         height="70.085396"
         width="23.22654"
         id="rect5296"
         style="fill:#502d16;fill-opacity:1;stroke:#502d16;stroke-width:0.35984355;stroke-opacity:1" />
      <rect
         ry="12.380237"
         y="133.68358"
         x="90.288826"
         height="72.733864"
         width="34.063931"
         id="rect5290"
         style="fill:#000080;fill-opacity:1;stroke:#000080;stroke-width:0.50696939;stroke-opacity:1" />
      <rect
         ry="11.600981"
         y="140.98975"
         x="94.450439"
         height="60.507076"
         width="23.201962"
         id="rect5294"
         style="fill:#0000af;fill-opacity:1;stroke:#0000af;stroke-width:0.45036802;stroke-opacity:1" />
      <ellipse
         transform="rotate(55.36206)"
         ry="11.051417"
         rx="14.268332"
         cy="26.851276"
         cx="231.53047"
         id="path5268"
         style="fill:#ffccaa;fill-opacity:1;stroke:#ffccaa;stroke-width:0.22255188;stroke-opacity:1" />
      <path
         inkscape:connector-curvature="0"
         id="path5300"
         d="m 105.61463,76.332406 a 1.7060265,1.5922914 0 0 0 -1.70558,1.593001 1.7060265,1.5922914 0 0 0 0.003,0.0897 25.921126,23.646423 0 0 0 -24.191436,19.251473 h 40.753016 c 0.18599,0.11541 0.40361,0.18472 0.63951,0.18472 h 25.00245 c 0.67299,0 1.21476,-0.54175 1.21476,-1.21476 0,-0.673 -0.54177,-1.21476 -1.21476,-1.21476 h -16.05217 a 25.921126,23.646423 0 0 0 -22.74887,-16.980289 1.7060265,1.5922914 0 0 0 0.006,-0.116088 1.7060265,1.5922914 0 0 0 -1.70649,-1.593001 z"
         style="fill:#ff0000;fill-opacity:1;stroke:#ff0000;stroke-width:0.47132376;stroke-opacity:1" />
      <ellipse
         ry="4.3667679"
         rx="2.8882117"
         cy="103.97036"
         cx="124.03986"
         id="path5314"
         style="fill:#ffffff;fill-opacity:1;stroke:#ffffff;stroke-width:0.36069971;stroke-opacity:1" />
      <ellipse
         ry="1.6440042"
         rx="1.6783547"
         cy="103.88698"
         cx="125.17204"
         id="path5316"
         style="fill:#000000;fill-opacity:1;stroke:#000000;stroke-width:0.14558554;stroke-opacity:1" />
    </g>
    <path
       id="path857"
       title="pow(x,2)+pow(y-pow(pow(x,2),1/3)),2) = 1"
       d=""
       style="fill:#ffffff;fill-opacity:1;stroke:#552200;stroke-width:0.25;stroke-opacity:1" />
    <path
       id="path878"
       title="pow(x,2)+pow(y-pow(pow(x,2),1/3)),2) = 1"
       d=""
       style="fill:#ffffff;fill-opacity:1;stroke:#552200;stroke-width:0.25;stroke-opacity:1" />
    <path
       id="path900"
       title="pow(x,2)+pow(y-pow(pow(x,2),1/3)),2) = 1"
       d=""
       style="fill:#ffffff;fill-opacity:1;stroke:#552200;stroke-width:0.25;stroke-opacity:1" />
    <path
       id="path924"
       title="pow(x,2)+pow(y-pow(pow(x,2),1/3)),2) = 1"
       d=""
       style="fill:#ffffff;fill-opacity:1;stroke:#552200;stroke-width:0.25;stroke-opacity:1" />
    <g
       id="g989"
       transform="matrix(0.89219401,0,0,0.72811339,17.562265,31.45952)">
      <rect
         y="57.328484"
         x="33.290859"
         height="30.985016"
         width="80.563507"
         id="rect966"
         style="fill:#ffffff;fill-opacity:1;stroke:#000000;stroke-width:0.22815883;stroke-opacity:1" />
      <path
         inkscape:connector-curvature="0"
         id="path933"
         d="m 66.928076,60.610765 c -4.01681,-0.05925 -6.11784,3.989084 -4.281259,9.336805 2.677438,7.796113 6.696028,7.227844 10.681529,16.008782 3.985499,-8.780938 8.00409,-8.212669 10.681528,-16.008782 1.83658,-5.347721 -0.264274,-9.396062 -4.281085,-9.336805 -4.924665,0.07266 -6.400443,4.625911 -6.400443,4.625911 0,0 -1.475603,-4.553259 -6.40027,-4.625911 z"
         style="fill:#ff0000;stroke:#ff0000;stroke-width:0.08090188px;stroke-linecap:butt;stroke-linejoin:miter;stroke-opacity:1" />
      <path
         inkscape:connector-curvature="0"
         id="path933-0"
         d="m 92.382537,60.961717 c -4.016812,-0.05925 -6.117842,3.989083 -4.281261,9.336804 2.677441,7.796114 6.696021,7.227845 10.681528,16.008783 3.985496,-8.780938 8.004086,-8.212669 10.681526,-16.008783 1.83658,-5.347721 -0.26427,-9.396061 -4.28108,-9.336804 -4.92467,0.07266 -6.400446,4.625911 -6.400446,4.625911 0,0 -1.4756,-4.553259 -6.400267,-4.625911 z"
         style="fill:#483e37;stroke:#483e37;stroke-width:0.08090188px;stroke-linecap:butt;stroke-linejoin:miter;stroke-opacity:1" />
      <path
         inkscape:connector-curvature="0"
         id="path933-9"
         d="m 41.120239,60.634311 c -4.01681,-0.05925 -6.11784,3.989084 -4.281259,9.336805 2.677438,7.796114 6.696028,7.227845 10.681529,16.008783 3.985499,-8.780938 8.00409,-8.212669 10.681528,-16.008783 1.83658,-5.347721 -0.264274,-9.396062 -4.281085,-9.336805 -4.924665,0.07266 -6.400443,4.625912 -6.400443,4.625912 0,0 -1.475603,-4.55326 -6.40027,-4.625912 z"
         style="fill:#ff0000;stroke:#ff0000;stroke-width:0.08090188px;stroke-linecap:butt;stroke-linejoin:miter;stroke-opacity:1" />
    </g>
  </g>
</svg>
