<?xml version="1.0" encoding="UTF-8" standalone="no"?>
<!-- Created with Inkscape (http://www.inkscape.org/) -->

<svg
   xmlns:dc="http://purl.org/dc/elements/1.1/"
   xmlns:cc="http://creativecommons.org/ns#"
   xmlns:rdf="http://www.w3.org/1999/02/22-rdf-syntax-ns#"
   xmlns:svg="http://www.w3.org/2000/svg"
   xmlns="http://www.w3.org/2000/svg"
   xmlns:sodipodi="http://sodipodi.sourceforge.net/DTD/sodipodi-0.dtd"
   xmlns:inkscape="http://www.inkscape.org/namespaces/inkscape"
   width="297mm"
   height="210mm"
   viewBox="0 0 297 210"
   version="1.1"
   id="svg8"
   inkscape:version="0.92.4 (5da689c313, 2019-01-14)"
   sodipodi:docname="pozadie.svg">
  <defs
     id="defs2" />
  <sodipodi:namedview
     id="base"
     pagecolor="#ffffff"
     bordercolor="#666666"
     borderopacity="1.0"
     inkscape:pageopacity="0.0"
     inkscape:pageshadow="2"
     inkscape:zoom="0.7"
     inkscape:cx="180.83097"
     inkscape:cy="441.62441"
     inkscape:document-units="mm"
     inkscape:current-layer="g1089"
     showgrid="false"
     inkscape:window-width="1920"
     inkscape:window-height="1001"
     inkscape:window-x="-9"
     inkscape:window-y="-9"
     inkscape:window-maximized="1" />
  <metadata
     id="metadata5">
    <rdf:RDF>
      <cc:Work
         rdf:about="">
        <dc:format>image/svg+xml</dc:format>
        <dc:type
           rdf:resource="http://purl.org/dc/dcmitype/StillImage" />
        <dc:title />
      </cc:Work>
    </rdf:RDF>
  </metadata>
  <g
     inkscape:label="Layer 1"
     inkscape:groupmode="layer"
     id="layer1"
     transform="translate(0,-87)">
    <rect
       style="fill:#67a0ff;fill-opacity:1;stroke-width:0.92843163"
       id="rect3715-5-2"
       width="297.77649"
       height="210.89124"
       x="-0.02407087"
       y="86.821182"
       ry="0" />
    <g
       id="g27"
       transform="matrix(0.85564547,0,0,0.63036982,-55.352524,84.492999)">
      <ellipse
         ry="17.184574"
         rx="32.492607"
         cy="48.480659"
         cx="123.22024"
         id="path21"
         style="fill:#87cdde;fill-opacity:1;stroke:#87cdde;stroke-width:0.29126939;stroke-opacity:1" />
      <ellipse
         ry="19.858427"
         rx="33.65456"
         cy="48.10268"
         cx="156.10416"
         id="path23"
         style="fill:#87cdde;fill-opacity:1;stroke:#87cdde;stroke-width:0.23522668;stroke-opacity:1" />
    </g>
    <g
       id="g78"
       transform="matrix(0.56684467,0,0,0.59390312,92.651735,95.704165)">
      <ellipse
         ry="17.184574"
         rx="32.492607"
         cy="37.33036"
         cx="231.6994"
         id="path21-9"
         style="fill:#87cdde;fill-opacity:1;stroke:#87cdde;stroke-width:0.29126939;stroke-opacity:1" />
      <ellipse
         ry="19.858427"
         rx="33.65456"
         cy="36.952381"
         cx="264.58331"
         id="path23-7"
         style="fill:#87cdde;fill-opacity:1;stroke:#87cdde;stroke-width:0.23522668;stroke-opacity:1" />
      <ellipse
         ry="17.184574"
         rx="32.492607"
         cy="37.330357"
         cx="295.57739"
         id="path21-9-5"
         style="fill:#87cdde;fill-opacity:1;stroke:#87cdde;stroke-width:0.29126939;stroke-opacity:1" />
    </g>
    <g
       id="g133"
       transform="matrix(0.85505073,0,0,0.7004564,22.05168,30.685165)">
      <ellipse
         ry="10.013516"
         rx="39.22419"
         cy="169.30902"
         cx="152.89761"
         id="path21-9-1"
         style="fill:#afdde9;fill-opacity:1;stroke:#afdde9;stroke-width:0.24428874;stroke-opacity:1" />
      <ellipse
         transform="matrix(0.84113476,0.54082559,-0.97058364,0.24076421,0,0)"
         ry="34.116886"
         rx="19.265175"
         cy="99.597183"
         cx="262.3934"
         id="path23-7-0"
         style="fill:#afdde9;fill-opacity:1;stroke:#afdde9;stroke-width:0.2332724;stroke-opacity:1" />
      <ellipse
         transform="matrix(0.99982423,0.01874851,-0.15889444,0.98729558,0,0)"
         ry="9.9302406"
         rx="42.719761"
         cy="159.96494"
         cx="194.61635"
         id="path21-9-1-0"
         style="fill:#afdde9;fill-opacity:1;stroke:#afdde9;stroke-width:0.2538794;stroke-opacity:1" />
    </g>
    <g
       id="g1066">
      <path
         inkscape:connector-curvature="0"
         id="path135-4"
         d="M 122.84327,209.38013 A 24.695064,23.419388 0 0 0 99.183782,226.12935 H 146.49651 A 24.695064,23.419388 0 0 0 122.84327,209.38013 Z"
         style="fill:#aa4400;fill-opacity:1;stroke:#338000;stroke-width:0.65620774;stroke-opacity:1" />
      <path
         inkscape:connector-curvature="0"
         id="path135-4-9"
         d="m 148.54777,199.97911 a 24.695064,36.382836 0 0 0 -23.65949,26.0205 h 47.31273 a 24.695064,36.382836 0 0 0 -23.65324,-26.0205 z"
         style="fill:#aa4400;fill-opacity:1;stroke:#338000;stroke-width:0.8179031;stroke-opacity:1" />
    </g>
    <g
       id="g1062"
       transform="translate(4.9136905,-0.37797619)">
      <path
         inkscape:connector-curvature="0"
         id="path135-4-9-8-2"
         d="m 259.84665,195.92155 a 28.821765,41.667487 0 0 0 -27.61314,29.80001 h 55.21899 a 28.821765,41.667487 0 0 0 -27.60585,-29.80001 z"
         style="fill:#aa4400;fill-opacity:1;stroke:#338000;stroke-width:0.94559991;stroke-opacity:1" />
      <path
         inkscape:connector-curvature="0"
         id="path135-4-9-8"
         d="m 239.26205,180.63085 a 24.632468,62.976137 0 0 0 -23.59952,45.03966 h 47.19281 a 24.632468,62.976137 0 0 0 -23.59329,-45.03966 z"
         style="fill:#aa4400;fill-opacity:1;stroke:#338000;stroke-width:1.07470798;stroke-opacity:1" />
      <path
         inkscape:connector-curvature="0"
         id="path135-4-9-8-2-2"
         d="m 228.30075,199.70106 a 24.695064,36.382836 0 0 0 -23.65949,26.0205 h 47.31273 a 24.695064,36.382836 0 0 0 -23.65324,-26.0205 z"
         style="fill:#aa4400;fill-opacity:1;stroke:#338000;stroke-width:0.8179031;stroke-opacity:1" />
    </g>
    <g
       id="g1089"
       transform="translate(3.7297502e-8,-1.1339286)">
      <path
         inkscape:connector-curvature="0"
         id="path135"
         d="M 43.501962,184.74125 A 12.465534,59.720233 0 0 0 31.559167,227.45233 H 55.441605 A 12.465534,59.720233 0 0 0 43.501962,184.74125 Z"
         style="fill:#aa4400;fill-opacity:1;stroke:#338000;stroke-width:0.74450004;stroke-opacity:1" />
      <path
         inkscape:connector-curvature="0"
         id="path135-8"
         d="M 23.625701,198.02437 A 17.320387,41.071634 0 0 0 7.031641,227.39823 H 40.215384 A 17.320387,41.071634 0 0 0 23.625701,198.02437 Z"
         style="fill:#aa4400;fill-opacity:1;stroke:#338000;stroke-width:0.727777;stroke-opacity:1" />
      <path
         inkscape:connector-curvature="0"
         id="path135-8-9"
         d="M 48.153226,208.70467 A 17.320387,26.213682 0 0 0 31.559167,227.45233 H 64.74291 A 17.320387,26.213682 0 0 0 48.153226,208.70467 Z"
         style="fill:#aa4400;fill-opacity:1;stroke:#338000;stroke-width:0.58142185;stroke-opacity:1" />
    </g>
  </g>
</svg>
